<?xml version="1.0" encoding="UTF-8" standalone="no"?>
<!DOCTYPE svg PUBLIC "-//W3C//DTD SVG 1.1//EN" "http://www.w3.org/Graphics/SVG/1.1/DTD/svg11.dtd">
<svg version="1.1" xmlns="http://www.w3.org/2000/svg" xmlns:xlink="http://www.w3.org/1999/xlink" preserveAspectRatio="xMidYMid meet" viewBox="0 0 256 256" width="256" height="256"><defs><path d="M-1.25 -1.25L726.25 -1.25L726.25 501.25L-1.25 501.25L-1.25 -1.25Z" id="b2zO9djh7s"></path><path d="M40.44 127.52C51.06 146.46 71.53 158.24 106.05 161.49C101.13 165.17 95.21 172.15 94.39 180.21C88.19 184.15 75.73 185.45 66.05 182.45C52.47 178.23 47.28 151.83 26.95 155.59C22.55 156.4 23.43 159.26 27.23 161.68C33.43 165.62 39.26 170.55 43.75 181.04C47.21 189.09 54.47 203.49 77.43 203.49C86.54 203.49 92.93 202.41 92.93 202.41C92.93 202.41 93.1 222.98 93.1 230.97C93.1 240.2 80.43 242.79 80.43 247.23C80.43 248.98 84.63 249.15 87.99 249.15C94.65 249.15 108.5 243.68 108.5 234.1C108.5 226.49 108.63 200.89 108.63 196.41C108.63 186.62 113.97 183.52 113.97 183.52C113.97 183.52 114.63 235.78 112.69 242.79C110.42 251.03 106.31 249.86 106.31 253.54C106.31 259.01 122.99 254.87 128.51 242.87C132.78 233.53 130.92 182.26 130.92 182.26C131.37 182.25 135.02 182.17 135.47 182.17C135.47 182.17 135.73 205.64 135.57 216.37C135.41 227.48 134.64 241.53 141.36 248.16C145.77 252.51 160.06 260.17 160.06 253.17C160.06 249.11 152.23 245.78 152.23 234.8C152.23 229.74 152.23 189.29 152.23 184.24C158.49 184.24 157.55 200.86 157.55 200.86C157.59 203.95 157.96 228.66 158 231.75C158 231.75 156.62 243.01 170.39 247.71C175.26 249.39 185.64 249.83 186.13 247.04C186.62 244.23 173.62 240.05 173.5 231.33C173.42 226.02 173.74 222.92 173.74 199.81C173.74 176.71 170.58 168.17 159.58 161.37C193.52 157.95 214.53 149.69 224.77 127.59C225.56 127.61 228.94 117.27 228.5 117.27C230.8 108.92 232.05 99.05 232.28 87.37C232.22 55.66 216.79 44.45 213.83 39.19C218.2 15.19 213.09 4.28 210.73 0.53C201.98 -2.53 180.3 8.39 168.44 16.08C149.14 10.54 108.32 11.07 93.01 17.51C64.77 -2.36 49.82 0.68 49.82 0.68C49.82 0.68 40.16 17.69 47.27 42.59C37.98 54.23 31.05 62.46 31.05 84.29C31.06 96.61 32.53 107.61 35.85 117.22C35.45 117.22 40.31 127.52 40.44 127.52Z" id="a429fcbbMo"></path></defs><g><g><g><use xlink:href="#b2zO9djh7s" opacity="1" fill="#000000" fill-opacity="0"></use><g><use xlink:href="#b2zO9djh7s" opacity="1" fill-opacity="0" stroke="#000000" stroke-width="1" stroke-opacity="0"></use></g></g><g><use xlink:href="#a429fcbbMo" opacity="1" fill="#ffffff" fill-opacity="1"></use><g><use xlink:href="#a429fcbbMo" opacity="1" fill-opacity="0" stroke="#000000" stroke-width="0" stroke-opacity="0"></use></g></g></g></g></svg>