<svg id="Layer_1" enable-background="new 0 0 512.011 512.011" height="512" viewBox="0 0 512.011 512.011" width="512" xmlns="http://www.w3.org/2000/svg"><g><g><path d="m378.226 413.599c-4.087 3.715-4.385 10.037-.67 14.124 1.973 2.17 4.682 3.271 7.402 3.271 2.401 0 4.811-.859 6.727-2.602 4.087-3.715 4.388-10.04.673-14.126-3.715-4.087-10.041-4.389-14.126-.673z"/><path d="m347.685 256.945 21.213 21.213c3.77 3.77 8.792 5.846 14.142 5.846s10.373-2.076 14.142-5.846l106.066-106.065c5.65-5.651 8.763-13.185 8.763-21.213 0-8.029-3.112-15.563-8.763-21.214l-84.853-84.853c-11.697-11.697-30.729-11.694-42.427 0l-106.065 106.066c-7.797 7.798-7.797 20.486.001 28.284l21.213 21.213c2.588 2.588 6.241 3.449 9.548 2.607l-44.654 42.646-44.657-42.648c.805.206 1.635.324 2.479.324 2.652 0 5.196-1.054 7.071-2.929l21.213-21.213c7.797-7.798 7.798-20.486 0-28.285l-106.065-106.065c-5.65-5.65-13.184-8.762-21.213-8.762-8.029 0-15.563 3.111-21.213 8.762l-84.854 84.852c-11.696 11.697-11.696 30.729 0 42.427l106.066 106.065c3.899 3.898 9.021 5.848 14.142 5.848s10.243-1.949 14.142-5.848l21.213-21.213c1.875-1.875 2.929-4.419 2.929-7.071 0-.845-.118-1.675-.324-2.479l41.606 43.565-78.676 75.137c-15.004-.76-30.262 4.574-41.696 16.009-10.389 10.388-16.109 24.2-16.109 38.892 0 14.69 5.721 28.503 16.109 38.891 10.724 10.724 24.805 16.083 38.891 16.083 14.083 0 28.169-5.362 38.89-16.083 10.389-10.388 16.109-24.199 16.109-38.891 0-.948-.026-1.893-.073-2.833l74.019-77.505 74.019 77.504c-.047.94-.073 1.885-.073 2.833 0 14.691 5.721 28.503 16.109 38.891 10.722 10.722 24.806 16.083 38.891 16.083 14.084 0 28.168-5.361 38.89-16.083 10.388-10.388 16.109-24.2 16.109-38.891s-5.721-28.503-16.109-38.892c-11.434-11.434-26.692-16.767-41.695-16.008l-78.676-75.137 41.605-43.565c-.206.804-.324 1.634-.324 2.479 0 2.653 1.054 5.197 2.929 7.072zm21.213-176.776 98.995 98.994-14.143 14.143-98.994-98.994zm35.356-21.214 84.852 84.853c1.873 1.873 2.905 4.384 2.905 7.07s-1.032 5.198-2.905 7.071l-7.071 7.071-98.995-98.994 7.071-7.071c3.899-3.897 10.243-3.899 14.143 0zm-120.208 106.066 56.567-56.567 98.994 98.994-56.567 56.567-14.679-14.679c14.66-20.145 12.483-44.085-6.534-63.103-19.019-19.018-42.958-21.197-63.104-6.534zm-261.131-21.213 84.853-84.853c1.873-1.873 4.384-2.904 7.071-2.904s5.198 1.031 7.071 2.904l7.071 7.071-98.994 98.994-7.071-7.071c-3.9-3.898-3.9-10.243-.001-14.141zm106.066 120.207-56.567-56.566 17.68-17.68c3.905-3.905 3.905-10.237 0-14.143-3.905-3.904-10.237-3.904-14.143 0l-17.68 17.68-14.143-14.143 98.994-98.994 14.143 14.144-17.675 17.675c-3.906 3.905-3.906 10.237 0 14.143 1.953 1.952 4.512 2.929 7.071 2.929s5.119-.977 7.071-2.929l17.676-17.676 56.566 56.566-14.68 14.681c-8.03-5.841-16.802-9.114-25.781-9.564-13.232-.657-26.128 4.903-37.32 16.097-19.017 19.017-21.194 42.958-6.534 63.103zm22.832 181.729c-13.646 13.647-35.851 13.647-49.497 0-6.61-6.61-10.251-15.399-10.251-24.748 0-9.35 3.641-18.139 10.251-24.749 6.823-6.823 15.786-10.234 24.748-10.234 8.963 0 17.925 3.411 24.749 10.234 6.611 6.61 10.251 15.4 10.251 24.749s-3.64 18.138-10.251 24.748zm24.061-50.133c-2.565-4.917-5.885-9.472-9.918-13.506-4.08-4.08-8.649-7.379-13.517-9.906l69.921-66.776 19.824 20.757zm244.081 25.384c0 9.35-3.641 18.139-10.251 24.749-13.646 13.647-35.85 13.647-49.497 0-6.61-6.61-10.251-15.399-10.251-24.748s3.641-18.139 10.251-24.749c13.647-13.646 35.852-13.646 49.498 0 6.61 6.611 10.25 15.4 10.25 24.748zm-73.89-38.89c-4.034 4.034-7.354 8.589-9.919 13.506l-178.428-186.831c1.586-2.729 3.751-5.537 6.618-8.403 2.764-2.764 5.569-4.968 8.402-6.62l186.845 178.442c-4.869 2.527-9.438 5.826-13.518 9.906zm-75.576-122.648 68.793-65.699c2.729 1.586 5.537 3.752 8.404 6.619 2.866 2.866 5.032 5.675 6.618 8.403l-65.291 68.367z"/><path d="m119.991 413.922c-3.905 3.905-3.905 10.237 0 14.143l.005.005c1.952 1.952 4.51 2.928 7.068 2.928 2.559 0 5.119-.978 7.072-2.931 3.905-3.905 3.903-10.239-.002-14.145-3.905-3.904-10.237-3.904-14.143 0z"/><path d="m114.847 140.88h-.007c-5.523 0-9.996 4.478-9.996 10s4.48 10 10.003 10 10-4.478 10-10-4.477-10-10-10z"/></g></g></svg>