<?xml version="1.0" encoding="UTF-8" standalone="no"?>
<!DOCTYPE svg PUBLIC "-//W3C//DTD SVG 1.1//EN" "http://www.w3.org/Graphics/SVG/1.1/DTD/svg11.dtd">
<svg version="1.1" xmlns="http://www.w3.org/2000/svg" xmlns:xlink="http://www.w3.org/1999/xlink" preserveAspectRatio="xMidYMid meet" viewBox="0 0 300 300" width="300" height="300"><defs><path d="M206.2 149.16C208.11 151.08 210.67 152.14 213.39 152.14C216.11 152.14 218.67 151.08 220.58 149.16C225.98 143.77 269.15 100.6 274.54 95.21C277.42 92.33 279 88.5 279 84.42C279 80.33 277.42 76.5 274.54 73.63C270.22 69.31 235.69 34.78 231.38 30.46C225.43 24.51 215.74 24.51 209.79 30.46C204.4 35.86 161.23 79.02 155.84 84.42C151.87 88.38 151.87 94.84 155.84 98.81C156.92 99.88 165.55 108.52 166.63 109.6C167.95 110.91 169.8 111.35 171.49 110.92C169.97 112.37 162.4 119.6 148.77 132.62C135.14 119.6 127.57 112.37 126.05 110.92C126.46 111.03 126.89 111.09 127.31 111.09C128.66 111.09 129.96 110.55 130.91 109.6C131.99 108.52 140.62 99.88 141.7 98.81C145.67 94.84 145.67 88.38 141.7 84.42C136.31 79.02 93.14 35.86 87.75 30.46C84.87 27.59 81.04 26.01 76.96 26.01C72.87 26.01 69.04 27.59 66.16 30.46C61.85 34.78 27.32 69.31 23 73.63C17.05 79.58 17.05 89.26 23 95.21C28.39 100.6 71.56 143.77 76.96 149.16C78.94 151.15 81.54 152.14 84.15 152.14C86.75 152.14 89.36 151.15 91.34 149.16C92.42 148.08 101.06 139.45 102.13 138.37C103.09 137.42 103.62 136.12 103.62 134.78C103.62 134.35 103.56 133.92 103.46 133.51C104.87 134.99 111.93 142.38 124.62 155.68C100.61 178.61 87.27 191.35 84.6 193.9C76.97 193.51 69.21 196.22 63.39 202.04C58.11 207.33 55.2 214.35 55.2 221.83C55.2 229.3 58.11 236.32 63.39 241.61C68.85 247.06 76.01 249.79 83.18 249.79C90.34 249.79 97.5 247.06 102.96 241.61C108.24 236.32 111.15 229.3 111.15 221.83C111.15 221.34 111.14 220.86 111.12 220.38C113.63 217.76 126.18 204.61 148.77 180.96C171.36 204.61 183.91 217.76 186.42 220.38C186.4 220.86 186.39 221.34 186.39 221.83C186.39 229.3 189.3 236.32 194.58 241.61C200.04 247.06 207.2 249.79 214.37 249.79C221.53 249.79 228.69 247.06 234.15 241.61C239.43 236.32 242.34 229.3 242.34 221.83C242.34 214.35 239.43 207.33 234.15 202.04C228.33 196.22 220.57 193.51 212.94 193.9C210.27 191.35 196.93 178.61 172.92 155.68C185.61 142.38 192.67 134.99 194.08 133.51C193.98 133.92 193.92 134.35 193.92 134.78C193.92 136.13 194.45 137.42 195.41 138.37C197.56 140.53 205.12 148.09 206.2 149.16ZM206.2 48.45L256.56 98.81L249.36 106L199 55.64L206.2 48.45ZM267.35 80.82C268.3 81.77 268.82 83.05 268.82 84.42C268.82 85.78 268.3 87.06 267.35 88.01C267.11 88.25 265.91 89.45 263.75 91.61L213.39 41.25C215.55 39.1 216.75 37.9 216.99 37.66C218.97 35.67 222.2 35.67 224.18 37.66C232.82 46.29 263.03 76.5 267.35 80.82ZM163.03 91.61L191.81 62.84L242.17 113.19L213.39 141.97C208.91 137.49 206.42 135 205.92 134.5C213.38 124.25 212.27 112.08 202.6 102.4C192.92 92.73 180.75 91.62 170.5 99.08C169.5 98.08 167.01 95.59 163.03 91.61ZM73.36 37.66C74.31 36.7 75.59 36.18 76.96 36.18C78.32 36.18 79.6 36.7 80.55 37.66C80.79 37.9 81.99 39.1 84.15 41.25L33.79 91.61C31.63 89.45 30.43 88.25 30.19 88.01C28.21 86.03 28.21 82.8 30.19 80.82C38.83 72.19 69.04 41.97 73.36 37.66ZM84.15 141.97L55.37 113.19C60.77 107.8 63.77 104.8 64.37 104.2C66.35 102.21 66.35 98.99 64.37 97.01C62.38 95.02 59.16 95.02 57.17 97.01C56.57 97.61 53.58 100.6 48.18 106L40.98 98.81L91.34 48.45L98.54 55.64C93.14 61.04 90.15 64.03 89.55 64.63C87.56 66.62 87.56 69.84 89.55 71.83C90.54 72.82 91.84 73.32 93.14 73.32C94.45 73.32 95.75 72.82 96.74 71.83C97.34 71.23 100.34 68.23 105.73 62.84L134.51 91.61C130.03 96.09 127.54 98.58 127.04 99.08C122.96 96.11 118.49 94.44 113.93 94.21C107.19 93.88 100.63 96.71 94.94 102.4C85.27 112.08 84.16 124.26 91.62 134.5C90.62 135.5 88.13 137.99 84.15 141.97ZM70.59 234.41C67.22 231.05 65.37 226.58 65.37 221.83C65.37 217.07 67.22 212.6 70.59 209.24C74.06 205.76 78.62 204.03 83.17 204.03C87.73 204.03 92.29 205.76 95.76 209.24C99.13 212.6 100.98 217.07 100.98 221.83C100.98 226.58 99.13 231.05 95.76 234.41C88.82 241.36 77.53 241.36 70.59 234.41ZM108 208.91C106.7 206.41 105.01 204.09 102.96 202.04C100.88 199.97 98.56 198.29 96.08 197C98.45 194.74 110.31 183.41 131.65 163.03L141.74 173.59C123.75 192.43 112.5 204.2 108 208.91ZM226.95 234.41C220.01 241.36 208.72 241.36 201.78 234.41C198.41 231.05 196.56 226.58 196.56 221.83C196.56 217.07 198.41 212.6 201.78 209.24C208.72 202.29 220.01 202.29 226.96 209.24C230.32 212.6 232.17 217.07 232.17 221.82C232.17 226.58 230.32 231.05 226.95 234.41ZM189.54 208.91C180.46 199.41 107.85 123.38 98.77 113.87C99.58 112.48 100.68 111.06 102.14 109.6C103.54 108.19 104.97 107.07 106.41 106.23C115.91 115.31 191.95 187.93 201.46 197C198.98 198.29 196.66 199.97 194.58 202.04C192.53 204.09 190.84 206.41 189.54 208.91ZM156.14 139.65C177.13 119.6 188.8 108.46 191.13 106.23C192.52 107.04 193.95 108.14 195.41 109.6C196.86 111.06 197.97 112.48 198.77 113.87C196.56 116.19 185.49 127.78 165.56 148.65L156.14 139.65Z" id="aP7d2rq4w"></path></defs><g><g><g><g><filter id="shadow7925294" x="-27.46" y="-20" width="352.46" height="315.79" filterUnits="userSpaceOnUse" primitiveUnits="userSpaceOnUse"><feFlood></feFlood><feComposite in2="SourceAlpha" operator="in"></feComposite><feGaussianBlur stdDeviation="4.47"></feGaussianBlur><feOffset dx="0" dy="0" result="afterOffset"></feOffset><feFlood flood-color="#000000" flood-opacity="0.5"></feFlood><feComposite in2="afterOffset" operator="in"></feComposite><feMorphology operator="dilate" radius="1"></feMorphology><feComposite in2="SourceAlpha" operator="out"></feComposite></filter><path d="M206.2 149.16C208.11 151.08 210.67 152.14 213.39 152.14C216.11 152.14 218.67 151.08 220.58 149.16C225.98 143.77 269.15 100.6 274.54 95.21C277.42 92.33 279 88.5 279 84.42C279 80.33 277.42 76.5 274.54 73.63C270.22 69.31 235.69 34.78 231.38 30.46C225.43 24.51 215.74 24.51 209.79 30.46C204.4 35.86 161.23 79.02 155.84 84.42C151.87 88.38 151.87 94.84 155.84 98.81C156.92 99.88 165.55 108.52 166.63 109.6C167.95 110.91 169.8 111.35 171.49 110.92C169.97 112.37 162.4 119.6 148.77 132.62C135.14 119.6 127.57 112.37 126.05 110.92C126.46 111.03 126.89 111.09 127.31 111.09C128.66 111.09 129.96 110.55 130.91 109.6C131.99 108.52 140.62 99.88 141.7 98.81C145.67 94.84 145.67 88.38 141.7 84.42C136.31 79.02 93.14 35.86 87.75 30.46C84.87 27.59 81.04 26.01 76.96 26.01C72.87 26.01 69.04 27.59 66.16 30.46C61.85 34.78 27.32 69.31 23 73.63C17.05 79.58 17.05 89.26 23 95.21C28.39 100.6 71.56 143.77 76.96 149.16C78.94 151.15 81.54 152.14 84.15 152.14C86.75 152.14 89.36 151.15 91.34 149.16C92.42 148.08 101.06 139.45 102.13 138.37C103.09 137.42 103.62 136.12 103.62 134.78C103.62 134.35 103.56 133.92 103.46 133.51C104.87 134.99 111.93 142.38 124.62 155.68C100.61 178.61 87.27 191.35 84.6 193.9C76.97 193.51 69.21 196.22 63.39 202.04C58.11 207.33 55.2 214.35 55.2 221.83C55.2 229.3 58.11 236.32 63.39 241.61C68.85 247.06 76.01 249.79 83.18 249.79C90.34 249.79 97.5 247.06 102.96 241.61C108.24 236.32 111.15 229.3 111.15 221.83C111.15 221.34 111.14 220.86 111.12 220.38C113.63 217.76 126.18 204.61 148.77 180.96C171.36 204.61 183.91 217.76 186.42 220.38C186.4 220.86 186.39 221.34 186.39 221.83C186.39 229.3 189.3 236.32 194.58 241.61C200.04 247.06 207.2 249.79 214.37 249.79C221.53 249.79 228.69 247.06 234.15 241.61C239.43 236.32 242.34 229.3 242.34 221.83C242.34 214.35 239.43 207.33 234.15 202.04C228.33 196.22 220.57 193.51 212.94 193.9C210.27 191.35 196.93 178.61 172.92 155.68C185.61 142.38 192.67 134.99 194.08 133.51C193.98 133.92 193.92 134.35 193.92 134.78C193.92 136.13 194.45 137.42 195.41 138.37C197.56 140.53 205.12 148.09 206.2 149.16ZM206.2 48.45L256.56 98.81L249.36 106L199 55.64L206.2 48.45ZM267.35 80.82C268.3 81.77 268.82 83.05 268.82 84.42C268.82 85.78 268.3 87.06 267.35 88.01C267.11 88.25 265.91 89.45 263.75 91.61L213.39 41.25C215.55 39.1 216.75 37.9 216.99 37.66C218.97 35.67 222.2 35.67 224.18 37.66C232.82 46.29 263.03 76.5 267.35 80.82ZM163.03 91.61L191.81 62.84L242.17 113.19L213.39 141.97C208.91 137.49 206.42 135 205.92 134.5C213.38 124.25 212.27 112.08 202.6 102.4C192.92 92.73 180.75 91.62 170.5 99.08C169.5 98.08 167.01 95.59 163.03 91.61ZM73.36 37.66C74.31 36.7 75.59 36.18 76.96 36.18C78.32 36.18 79.6 36.7 80.55 37.66C80.79 37.9 81.99 39.1 84.15 41.25L33.79 91.61C31.63 89.45 30.43 88.25 30.19 88.01C28.21 86.03 28.21 82.8 30.19 80.82C38.83 72.19 69.04 41.97 73.36 37.66ZM84.15 141.97L55.37 113.19C60.77 107.8 63.77 104.8 64.37 104.2C66.35 102.21 66.35 98.99 64.37 97.01C62.38 95.02 59.16 95.02 57.17 97.01C56.57 97.61 53.58 100.6 48.18 106L40.98 98.81L91.34 48.45L98.54 55.64C93.14 61.04 90.15 64.03 89.55 64.63C87.56 66.62 87.56 69.84 89.55 71.83C90.54 72.82 91.84 73.32 93.14 73.32C94.45 73.32 95.75 72.82 96.74 71.83C97.34 71.23 100.34 68.23 105.73 62.84L134.51 91.61C130.03 96.09 127.54 98.58 127.04 99.08C122.96 96.11 118.49 94.44 113.93 94.21C107.19 93.88 100.63 96.71 94.94 102.4C85.27 112.08 84.16 124.26 91.62 134.5C90.62 135.5 88.13 137.99 84.15 141.97ZM70.59 234.41C67.22 231.05 65.37 226.58 65.37 221.83C65.37 217.07 67.22 212.6 70.59 209.24C74.06 205.76 78.62 204.03 83.17 204.03C87.73 204.03 92.29 205.76 95.76 209.24C99.13 212.6 100.98 217.07 100.98 221.83C100.98 226.58 99.13 231.05 95.76 234.41C88.82 241.36 77.53 241.36 70.59 234.41ZM108 208.91C106.7 206.41 105.01 204.09 102.96 202.04C100.88 199.97 98.56 198.29 96.08 197C98.45 194.74 110.31 183.41 131.65 163.03L141.74 173.59C123.75 192.43 112.5 204.2 108 208.91ZM226.95 234.41C220.01 241.36 208.72 241.36 201.78 234.41C198.41 231.05 196.56 226.58 196.56 221.83C196.56 217.07 198.41 212.6 201.78 209.24C208.72 202.29 220.01 202.29 226.96 209.24C230.32 212.6 232.17 217.07 232.17 221.82C232.17 226.58 230.32 231.05 226.95 234.41ZM189.54 208.91C180.46 199.41 107.85 123.38 98.77 113.87C99.58 112.48 100.68 111.06 102.14 109.6C103.54 108.19 104.97 107.07 106.41 106.23C115.91 115.31 191.95 187.93 201.46 197C198.98 198.29 196.66 199.97 194.58 202.04C192.53 204.09 190.84 206.41 189.54 208.91ZM156.14 139.65C177.13 119.6 188.8 108.46 191.13 106.23C192.52 107.04 193.95 108.14 195.41 109.6C196.86 111.06 197.97 112.48 198.77 113.87C196.56 116.19 185.49 127.78 165.56 148.65L156.14 139.65Z" id="bXFHeyvGK" fill="white" fill-opacity="1" filter="url(#shadow7925294)"></path></g><use xlink:href="#aP7d2rq4w" opacity="1" fill="#c2c2c2" fill-opacity="1"></use><g><use xlink:href="#aP7d2rq4w" opacity="1" fill-opacity="0" stroke="#000000" stroke-width="0" stroke-opacity="0"></use></g></g></g></g></svg>